<?xml version="1.0" encoding="utf-8"?>
<!-- Generator: Adobe Illustrator 19.0.0, SVG Export Plug-In . SVG Version: 6.00 Build 0)  -->
<svg version="1.1"
	 id="svg16" xmlns:svg="http://www.w3.org/2000/svg" xmlns:cc="http://creativecommons.org/ns#" xmlns:rdf="http://www.w3.org/1999/02/22-rdf-syntax-ns#" xmlns:sodipodi="http://sodipodi.sourceforge.net/DTD/sodipodi-0.dtd" xmlns:dc="http://purl.org/dc/elements/1.1/" xmlns:inkscape="http://www.inkscape.org/namespaces/inkscape" sodipodi:docname="Bi獺ng.svg" inkscape:version="0.92.3 (2405546, 2018-03-11)"
	 xmlns="http://www.w3.org/2000/svg" xmlns:xlink="http://www.w3.org/1999/xlink" x="0px" y="0px" viewBox="106 -106 512 512"
	 style="enable-background:new 106 -106 512 512;" xml:space="preserve">
<sodipodi:namedview  inkscape:cy="292.20942" gridtolerance="10" objecttolerance="10" inkscape:zoom="1" showgrid="false" guidetolerance="10" pagecolor="#ffffff" bordercolor="#666666" borderopacity="1" inkscape:cx="341.33333" units="px" id="namedview18" inkscape:pageshadow="2" inkscape:window-width="1600" inkscape:window-height="837" inkscape:pageopacity="0" inkscape:window-x="-8" inkscape:window-y="-8" inkscape:window-maximized="1" inkscape:current-layer="svg16">
	</sodipodi:namedview>
<g>
	<path d="M437.8,41.1c-6.3-5-12.1-9-17.3-11.9l-10,8.6h-45.1l5.4,10.6h61.8L437.8,41.1z"/>
	<path d="M357.9,67h85.3l4.3-6.7c-6.8-4.7-13-8.6-18.6-11.7l-10.8,7.8h-65L357.9,67z"/>
	<path d="M165,16.2c9.3,0,14-6.5,14-19.4c0-23.9-19-44.6-57-62.2l-5.7,9.1c16.1,16.2,28.3,36.1,36.8,59.6
		C156.2,11.8,160.2,16.2,165,16.2z"/>
	<path d="M553.9-22.1c0-18.5-47.2-28.7-141.6-30.6l-4.4,8.8c51.9,6.1,93,16.5,123.4,31.4c3.8,1.6,7.1,2.3,9.9,2.3
		C549.7-10.2,553.9-14.1,553.9-22.1z"/>
	<path d="M155.4,99.4c3.6,8.5,8.2,12.7,13.7,12.7c10.5,0,15.8-6.1,15.8-18.4c0-23.3-21-44.2-63-62.5l-6,8.8
		C133.3,56.4,146.4,76.2,155.4,99.4z"/>
	<path d="M442.4,169.4l4.9-7.5c-6.7-4.1-12.4-7.3-17.3-9.6l-9.2,7h-41.6l-21.9-8V236h20.5v-2.6h47.2l-0.5,13.5l-0.3,1.3
		c-3.2-4.1-9.6-8.1-19.2-11.9l-4.3,3.1c6.5,5.4,10.5,11.1,12.1,17.1c0.9,2.8,3,4.1,6.2,4.1c1.6,0,3-0.2,4-0.5
		c-0.5,5.5-1.4,9.1-2.7,10.6c-1.8,1.4-4.8,2.1-8.9,2.1c-3.2,0-9.1-0.2-17.5-0.5v7.8c4.3,0.9,7.4,2,9.2,3.4c2.3,1.6,3.5,4.1,3.5,7.5
		c3.6-0.2,7.8-0.6,12.5-1.3c4.8-0.7,8.7-1.9,11.7-3.6c5.8-3.5,9.3-8.9,10.7-16.2c1.3-7.3,2.1-18.7,2.3-34.1c5.2-1.4,7.8-2.9,7.8-4.4
		c0-1.4-6.5-6.5-19.4-15.3l-7.8,6.2H413v-10.4h27l4.6-7.8c-6.5-4.1-12.2-7.3-17.3-9.6l-9.2,7H413v-11.4h27l4.6-7.5
		c-6.5-4.1-12.2-7.3-17.3-9.6l-9.2,7H413v-10.6H442.4z M394.3,222.3h-16.5v-10.4h16.5V222.3z M394.3,201.5h-16.5v-11.4h16.5V201.5z
		 M394.3,180h-16.5v-10.6h16.5V180z"/>
	<path d="M196.1-11.1c7.9,0,15-4.6,21.3-13.7c4.8-7.3,8.1-16.7,9.9-28.3h338.9c-1.7,5.7-3.9,11.1-6.5,16.3
		c-2.9,6.6-4.8,10.5-5.7,11.9l8.6,5.7c11.9-8.8,23-18.8,33.2-29.8l13.2-1.8c4.5-0.7,6.7-2.3,6.7-4.9c0-4.8-9.4-15.1-28.3-30.9
		l-17.9,20.2H412.4v-10.6c11.6-3.1,17.4-6.3,17.4-9.6c0-6-15-9.1-45.1-9.1v29.3H228.3c0.2-5.9-0.1-11.2-0.8-16.1l-10.1-1.6
		c-2.2,20.9-10.8,36.5-25.7,46.7c-6.2,4.1-9.3,8.6-9.3,13.2C182.4-15.4,187-11.1,196.1-11.1z"/>
	<path d="M533,221c-6.5-4.1-12.2-7.3-17.3-9.6l-9.2,7h-29.7v-9.6h45.3l4.6-7.8c-6.5-4.1-12.2-7.3-17.3-9.6l-9.2,7h-23.5v-9.3h45.3
		l4.6-7.5c-6.5-4.1-12.2-7.3-17.3-9.6l-9.2,7h-23.5v-10.4h49.4l4.6-7.5c-6.5-4.1-12.1-7.3-17-9.6l-9.4,7h-22.9l-25.1-8v67.9h-10
		l4,10.1h5.9V269l-12.7,3.4c9,13.3,15.2,20,18.6,20c2.3,0,4-3.1,5.1-9.3c11-5.4,21.3-11.1,31-17.4c6.3,7.8,14,15.1,23.2,22
		c3.8-6.2,9.1-11.1,15.9-14.5c-12.1-6-22.3-13.3-30.8-21.8c5.2-3.1,9.3-5.9,12.1-8.3c7.6-0.7,11.3-1.8,11.3-3.4
		c0-1.6-6.7-4.9-20-10.1c-2.5,5.4-5.8,10.4-9.7,15c-4-5-7.4-10.4-10.3-16.1h38L533,221z M493.6,259.1l-16.7,4.7v-35.3h3.5
		C482.8,239.4,487.2,249.6,493.6,259.1z"/>
	<path d="M370.2-35.1c6.9,0,10.3-1.4,10.3-4.3c0-4.5-9.5-11.3-28.6-20.5c-32.8,18.3-75.2,31.2-127.3,38.5l4.7,10.1
		c53.8-4.7,97.2-13,130.2-25C365.8-35.5,369.4-35.1,370.2-35.1z"/>
	<path d="M237.3,262.7c-2.4,0-9.2-0.5-20.2-1.6v8.8c7.6,1.6,13.1,4.1,16.6,7.5c1.9,2.1,3.2,4.7,3.8,7.8c0.6,3.1,0.9,6.1,0.9,8.8
		c11.8-1.7,19.1-5.5,21.9-11.3c2.9-5.8,4.3-14.3,4.3-25.5V65.9c7.4-5.5,11.1-9.3,11.1-11.4c0-2.2-8.4-8.6-25.1-19.2l-10.6,15.3h-9.9
		l-27.7-14.5v73.6c0,21.3,0,42.9-0.1,64.8c-0.1,22-1.3,43.5-3.8,64.6c-2.4,21.1-7,41.1-13.7,60.2l9.1,6
		c10.9-19.5,18.3-38.9,22.2-58.1c3.9-19.2,6.3-36,7.1-50.6h20.2v58.6C243.3,260.2,241.3,262.7,237.3,262.7z M223.6,66.5h19.7v47.7
		h-19.7V66.5z M223.6,180.8V130h19.7v50.8H223.6z"/>
	<path d="M367,368.8c-32.3,0-60.2-1.2-83.6-3.6c-23.4-2.4-43.8-7.4-61.1-14.9c-17.3-7.5-33.1-18.8-47.4-33.8V177.7
		c13.3-7.8,20-13.3,20-16.6c0-3.8-11-13.6-32.9-29.3l-15.8,21.3h-34.7l4.9,13.2h34.5v157.9c-7.4,10.7-20.7,28.4-39.7,53.2
		c10.7,15.2,18.1,22.8,22.3,22.8c2.9,0,3.5-3.7,1.6-11.1c15.9-33.2,25.8-55,29.8-65.3c13.7,17.8,29.2,31.6,46.5,41.5
		c17.4,9.9,38.6,16.7,63.7,20.6c25.1,3.9,55.9,5.8,92.6,5.8h226.1c3.3-10.5,8.5-20.1,15.6-28.5c-40.6,3.1-77.7,4.8-111.2,5.2
		C464.4,368.6,420.7,368.8,367,368.8z"/>
	<path d="M231,346.6c4.9,2.5,11.1,2.1,18.5-1.2c9.9-4,17.7-10.8,23.6-20.4c5.9-9.6,8.6-19.6,8.3-29.9l-10.1-2.3
		c-1.2,5.2-4.1,9.9-8.7,14.1c-4.6,4.2-9.5,7.8-14.8,10.8c-5.3,2.9-9.5,4.9-12.6,6c-7.6,3.5-11.5,7.5-11.5,12.2
		C223.6,340.5,226.1,344.1,231,346.6z"/>
	<path d="M412.7,75h-50.2l4,10.4h68l4.6-7.8c-6.5-4.1-12.2-7.3-17.3-9.6L412.7,75z"/>
	<path d="M289.6,283c10.8-5.2,21-10.8,30.5-16.9c4.7,6.1,10.3,11.5,16.7,16.3c3.8-6.2,9.1-11.1,15.9-14.5c-9-3.8-16.9-9.2-23.7-16.3
		c5.4-3.3,9.4-6.1,12.1-8.6c7.7-0.7,11.6-1.8,11.6-3.4c0-1.6-6.7-4.9-20-10.1c-2.7,5.4-6,10.4-10,15c-3.8-4.7-7.1-10-10-16.1h37.8
		l4.6-7.5c-6.5-4.1-12.1-7.3-17-9.6l-9.2,7h-30v-9.6h45.6l4.6-7.8c-6.5-4.1-12.2-7.3-17.3-9.6l-9.2,7h-23.7v-9.3h45.6l4.6-7.5
		c-6.5-4.1-12.2-7.3-17.3-9.6l-9.2,7h-23.7v-10.4h49.7l4.6-7.5c-6.5-4.1-12.2-7.3-17.3-9.6l-9.2,7h-22.9l-25.4-8v67.9h-13.2l4,10.1
		h9.2V269l-12.4,3.4c8.8,13.3,14.9,20,18.3,20C287,292.3,288.7,289.2,289.6,283z M299.1,228.5h3.8c2.5,11.4,6.7,21.7,12.4,30.9
		l-16.2,4.4V228.5z"/>
	<path d="M567.4,340.3c5.5,6.4,10.7,9.6,15.6,9.6c7.3,0,10.9-4.6,10.9-13.7c0-17.1-23.4-32.2-70.3-45.4l-6.7,9.6
		C538.6,313.5,555.5,326.8,567.4,340.3z"/>
	<path d="M311.2,350c5.4,3.4,18.6,5.1,39.7,5.1h69c41.3-0.2,68.2-1.4,80.6-3.6c13-2.2,19.6-10.2,20-23.9c-5.9,0-9.8-1.9-11.7-5.7
		c-2.1-4.7-3.1-14-3.1-28l-11.4-4.4c-1.9,15.9-6.1,27.3-12.4,34.2c-3.3,3.5-8.8,5.8-16.6,7c-9.2,1.6-26.5,2.4-52.1,2.6h-59.4
		c-13,0-20.7-0.4-23.3-1.3c-2.6-0.9-3.9-3.5-3.9-8v-17.1c9.7-2.1,14.5-5.2,14.5-9.3c0-5.2-12.6-8.4-37.9-9.6v39.7
		C303.2,339.1,305.9,346.6,311.2,350z"/>
	<path d="M374.6,278.3c0,2.4,2.3,3.6,7,3.6c7,0,10.5-4,10.5-11.9c0-7.6-3.8-16.9-11.3-27.7l-6.2,1.3c3.4,10.7,3.9,19.6,1.3,26.7
		C375.1,273.7,374.6,276.4,374.6,278.3z"/>
	<path d="M434.5,103l4.6-7.5c-6.5-4.1-12.2-7.3-17.3-9.6l-9.2,7h-50.2l4,10.1H434.5z"/>
	<path d="M404,271c5.6,0,8.4-2.2,8.4-6.7c0-7.3-6.5-15.3-19.4-24.1l-5.1,1.8c6.3,10.4,9.4,17.5,9.4,21.5
		C397.3,268.5,399.5,271,404,271z"/>
	<path d="M348.7,277.8c-1.6,2.1-2.4,3.6-2.4,4.7c0,3.3,2.3,4.9,7,4.9c11.2,0,16.7-8.6,16.7-25.7c0-4.1-0.7-10.2-2.2-18.1l-7.6-0.8
		C359.3,256.1,355.4,267.8,348.7,277.8z"/>
	<path d="M429.7,327.8c7.8,0,11.7-3.9,11.7-11.7c0-7.3-4.8-13-14.3-17.1c-9.7-4.1-27.2-7.2-52.6-9.1l-3.6,8.3
		c20,4,35.3,11.5,45.9,22.6C421.3,325.5,425.6,327.8,429.7,327.8z"/>
	<path d="M421,103.3l-11.9,9.3h-22.4c-7.4-2.8-14.9-5-22.7-6.7v47.4h20.5v-7.3h27.3v5.7h21v-25.9l7-3.4c2-1.2,3-2.8,3-4.7
		C442.9,115.2,435.6,110.4,421,103.3z M411.9,135.2h-27.3v-11.4h27.3V135.2z"/>
	<path d="M566.2,17.7c-7.4-6.6-16.9-13-28.6-19.4l-18.4,14.8H412.8V-8.7h71.6l5.4-8c-8.5-5.5-16.2-10.1-23.2-13.7l-13.3,9.3h-134
		l5.9,12.4h62.3v21.8H235.4l6.8,13.2h318.4L566.2,17.7z"/>
</g>
<path d="M558.1,76.6c6.7-2.4,10.1-4.7,10.1-7c0-4.6-10.8-7.1-32.4-7.4v186.5h22.3V76.6z"/>
<path d="M572.6,33.5v236.8c0,4.3-1.6,6.5-4.9,6.5c-2.1,0-9.5-0.6-22.3-1.8v8.3c10.2,1,16.8,3.3,19.7,6.7c2.8,3.4,4.3,7.6,4.7,12.6
	c11.2,0.2,18.2-2.4,21-7.6c2.8-5.2,4.1-12.7,4.1-22.4V49.6c9.3-2.8,14-5.6,14-8.3C608.9,36.4,596.8,33.8,572.6,33.5z"/>
<path d="M335.9,40.5c0-3.4-9.3-7.7-28-13c-5.9,15.2-13.3,29.8-22.3,43.8c-4.3-2.1-8.9-3.7-13.7-4.8l-3.4,6
	c11.4,8.3,18.8,17.4,22,27.2c1.6,4.2,3.6,6.8,6.2,7.9c-5.5,6.6-11.4,13.1-17.6,19.5c-3.8,0.2-7.3,0.2-10.4,0.2
	c2.9,19.1,6.3,28.6,10.1,28.6c3.5,0,5.7-3.6,6.7-10.8c8.8-1.4,15.5-2.6,20-3.6l16.9-3.8c5.9-1.4,11-2.9,15.3-4.3
	c0.2,1,0.3,1.8,0.5,2.6c0.2,1.6,0.3,2.8,0.5,3.6c1,9.1,4.6,13.7,10.6,13.7c8.5,0,12.7-4.4,12.7-13.2c0-14.1-11.3-27.6-34-40.4
	l-5.2,6c4.8,5,8.6,10.5,11.1,16.6c0,0.2,0.1,0.3,0.3,0.5c-10.2,1.4-23.4,2.6-39.7,3.6c18.1-13.5,32.7-28,43.6-43.5
	c11.9-1,17.9-2.6,17.9-5.1c0-3.5-8.7-8.3-26.2-14.2c-6.2,9.8-13.1,19.4-20.7,28.9c-0.9-2.4-2.4-4.8-4.7-7.2c-3.1-3.2-6.4-6-9.9-8.4
	c8.8-8.5,17.1-18.7,24.9-30.5C330.5,45.1,335.9,43.2,335.9,40.5z"/>
<path d="M509.4,40.5c0-3.4-9.3-7.7-28-13c-5.9,15.2-13.3,29.8-22.3,43.8c-4.3-2.1-8.9-3.7-13.7-4.8l-3.4,6
	c11.4,8.3,18.8,17.4,22,27.2c1.6,4.2,3.6,6.8,6.2,7.9c-5.5,6.6-11.4,13.1-17.6,19.5c-3.8,0.2-7.3,0.2-10.4,0.2
	c2.9,19.1,6.3,28.6,10.1,28.6c3.5,0,5.7-3.6,6.7-10.8c8.8-1.4,15.5-2.6,20-3.6l16.9-3.8c5.9-1.4,11-2.9,15.3-4.3
	c0.2,1,0.3,1.8,0.5,2.6c0.2,1.6,0.3,2.8,0.5,3.6c1,9.1,4.6,13.7,10.6,13.7c8.5,0,12.7-4.4,12.7-13.2c0-14.1-11.3-27.6-34-40.4
	l-5.2,6c4.8,5,8.6,10.5,11.1,16.6c0,0.2,0.1,0.3,0.3,0.5c-10.2,1.4-23.4,2.6-39.7,3.6c18.2-13.5,32.7-28,43.6-43.5
	c11.9-1,17.9-2.6,17.9-5.1c0-3.5-8.7-8.3-26.2-14.2c-6.2,9.8-13.1,19.4-20.7,28.9c-0.9-2.4-2.4-4.8-4.7-7.2c-3.1-3.2-6.4-6-9.9-8.4
	c8.8-8.5,17.1-18.7,24.9-30.5C503.9,45.1,509.4,43.2,509.4,40.5z"/>
</svg>
