<?xml version="1.0" encoding="UTF-8"?>
<svg xmlns="http://www.w3.org/2000/svg" viewBox="0 0 1024 1024" width="1024" height="1024">
  <g transform="translate(0 901.120) scale(1.024000 -1.024000)">
    <path d="M555 241 541 236C547 224 551 206 552 191C574 168 607 203 555 241ZM527 233 512 229C514 214 515 189 513 170C534 145 568 178 527 233ZM600 608 583 591H500L507 564H611C623 564 631 569 633 579C619 594 600 608 600 608ZM599 654 582 637H499L506 610H610C622 610 630 615 632 625C618 641 599 654 599 654ZM339 118 322 119C315 90 276 69 258 63C211 42 242 0 285 17C323 34 345 75 339 118ZM458 117 382 127V50C382 12 394 1 470 1H596C766 1 792 9 792 33C792 43 786 48 767 54L764 112H752C745 86 737 64 730 54C726 49 721 47 710 47C696 46 652 45 597 45H475C434 45 430 47 430 58V95C447 97 456 106 458 117ZM781 125 771 115C810 92 861 47 880 15C935 -10 958 91 781 125ZM523 124 514 113C546 99 586 72 607 52C658 36 676 131 523 124ZM617 759 614 741C702 724 785 693 821 671C870 664 879 754 617 759ZM961 688 888 697V190C888 179 886 176 878 176C870 176 845 178 845 178V161C859 159 867 155 873 147C880 139 881 125 882 113C926 119 931 141 931 185V666C951 669 959 676 961 688ZM38 788 26 781C58 739 78 669 81 629C95 576 150 602 138 657C127 702 91 750 38 788ZM753 557 745 554C758 569 769 585 779 599C798 594 811 602 816 610L754 650C749 638 740 621 731 603L685 598C701 616 717 637 729 655C749 650 761 659 766 666L699 709C690 681 668 619 646 600C642 599 633 595 633 595L655 546C659 548 663 551 667 556L713 572C695 542 675 514 656 498C652 496 641 493 641 493L661 447C663 448 666 449 668 453C700 462 739 476 766 485C768 477 769 469 769 461C801 429 846 496 753 557ZM479 852 475 837C501 827 529 811 551 795H232C231 804 228 814 225 825H207C211 796 195 760 173 747C157 737 147 721 155 704C161 692 175 689 189 692L188 679V460C188 341 194 209 158 102L173 90C215 164 226 260 229 349H265V190C265 179 263 176 254 176C245 176 216 179 216 179V163C232 160 240 156 247 149C254 141 256 127 256 116C302 122 307 144 307 186V640C318 642 328 647 332 652L279 694L258 669H242L194 694C199 695 203 697 207 700C222 712 234 735 235 766H447C386 740 310 721 248 713L250 694C287 693 336 697 384 704C374 676 351 617 330 600C326 598 317 595 317 595L339 546C342 547 345 549 347 553L390 568C372 540 352 513 333 498C328 496 317 493 317 493L344 448L332 453V295H309L316 269H332V192C332 182 329 177 311 163L346 122C349 124 353 129 356 135L411 177C419 164 428 152 439 145C443 163 451 169 467 172C457 160 454 145 463 139C474 132 491 142 497 152C505 167 508 195 503 225L483 227C485 216 481 198 475 186C456 194 441 205 429 217C438 222 442 227 446 232C462 228 475 233 481 241L438 269H457C469 269 477 274 479 284C465 299 446 312 446 312L428 295H373V315H444C455 315 463 320 465 330C451 344 433 356 433 356L415 341H373V361H445C456 361 464 366 466 376C452 390 434 401 434 401L416 387H373V408H451C463 408 471 413 473 423C458 437 440 450 440 450L422 434H383L346 448C348 449 351 452 353 456L443 488C445 479 445 470 445 462C477 429 523 495 435 557L427 553L460 596C481 592 493 599 498 607L436 648L410 600L369 596C386 615 403 636 416 655C436 651 448 659 453 667L389 705C424 710 458 718 486 728C502 723 510 726 517 732L469 766H877C869 748 860 728 853 715L868 707C891 719 923 741 939 759C958 760 969 760 977 767L912 831L877 795H612C612 805 606 815 595 823C567 841 524 849 479 852ZM536 458V464H586V447H592C603 447 626 453 627 457V516C635 518 644 523 647 527L603 562L581 542H541L496 564V447L484 452V234H489C509 234 523 241 523 244V258H610L609 232C605 237 599 243 589 248L575 242C581 235 584 221 586 210C593 203 601 202 606 206C604 189 602 181 599 178C595 174 591 173 583 173C573 173 566 173 555 173V155C561 154 565 153 569 149C575 143 577 137 577 129C590 129 606 130 620 140C642 156 645 184 646 252C653 254 656 256 660 261L625 300L610 284H589V308H628C640 308 648 313 650 323C636 337 617 350 617 350L600 334H589V357H628C640 357 648 362 650 372C636 386 617 399 617 399L600 383H589V406H633C645 406 653 411 655 421C641 435 622 448 622 448L605 432H533L501 445C519 445 536 455 536 458ZM749 238C743 248 739 258 735 269H763C760 259 755 248 749 238ZM883 628 818 636V286C805 300 788 312 788 312L770 295H709V315H780C792 315 800 320 802 330C787 344 769 356 769 356L751 341H709V361H781C793 361 801 366 803 376C788 390 770 401 770 401L752 387H709V408H787C799 408 807 413 809 423C795 437 777 450 777 450L759 434H719L668 453V295H650L657 269H669V192C669 181 666 176 647 162L683 121C687 124 691 129 694 136L747 177C757 159 770 144 786 134C791 157 803 160 824 163L827 175C799 186 778 200 763 217C772 222 777 227 782 232C798 228 811 233 817 242L773 269H799C809 269 816 273 818 281V212H827C843 212 861 224 861 231V609C875 612 882 619 883 628ZM709 185V269H715C719 245 726 219 737 196ZM414 238C408 248 404 258 401 269H428C425 259 420 248 414 238ZM372 185V269H380C384 245 391 219 401 196ZM523 334V357H552V334ZM523 308H552V284H523ZM523 383V406H552V383ZM621 704 600 684H580C591 695 586 719 538 733L526 727C534 716 541 699 544 684H475L482 657H637C648 657 656 662 658 672C642 688 621 704 621 704ZM586 491H536V516H586ZM89 54C66 27 37 -16 19 -39L70 -88C76 -80 75 -76 72 -69C82 -37 97 10 111 39C116 48 125 53 137 40C209 -66 305 -76 566 -76C706 -76 811 -76 932 -76C936 -54 949 -40 975 -36V-23C835 -28 718 -28 582 -28C333 -28 221 -27 150 65C146 70 142 73 138 74V447C156 450 171 457 177 464L112 516L80 484H25L34 454H89ZM265 378H230V461V497H265ZM265 527H230V639H265ZM697 499C712 514 727 531 741 548C747 537 754 522 759 507ZM379 502C394 517 409 533 422 548C428 538 434 524 438 510Z" fill="#111" stroke="none"/>
  </g>
</svg>
