<?xml version="1.0" encoding="UTF-8"?>
<svg xmlns="http://www.w3.org/2000/svg" viewBox="0 0 1024 1024" width="1024" height="1024">
  <g transform="translate(0 901.120) scale(1.024000 -1.024000)">
    <path d="M561 263 544 245H470L478 215H571C584 215 592 220 595 231C580 247 561 263 561 263ZM600 607 583 589H500L507 563H611C623 563 631 568 633 578C619 593 600 607 600 607ZM599 653 582 635H499L506 609H610C622 609 630 614 632 624C618 639 599 653 599 653ZM343 120 326 121C318 91 274 71 254 65C206 45 235 1 280 18C321 33 348 75 343 120ZM459 120 383 130V49C383 11 394 0 470 0H595C764 0 790 8 790 32C790 42 784 47 764 53L761 112H749C743 86 735 63 728 53C723 48 719 46 708 46C693 45 650 44 596 44H476C435 44 431 46 431 57V97C447 99 457 108 459 120ZM781 127 771 116C810 93 861 48 880 16C935 -9 958 93 781 127ZM521 129 512 117C545 103 587 76 607 55C659 37 677 133 521 129ZM618 759 615 741C703 723 785 693 821 671C870 662 879 752 618 759ZM961 690 888 699V192C888 181 886 178 878 178C870 178 845 181 845 181V163C859 161 867 157 873 149C880 141 881 127 882 115C926 121 931 143 931 188V668C951 671 959 678 961 690ZM38 788 26 781C58 739 78 669 81 629C95 576 150 602 138 657C127 702 91 750 38 788ZM535 453V463H586V446H591H593L578 428H484L493 399H580L568 299H529L536 346C559 346 569 356 573 367L501 387C499 362 494 321 489 293L474 285L511 257L527 270H602C598 219 593 196 585 190C581 186 575 184 566 184C554 184 535 186 520 186V168C530 167 541 164 547 160C554 154 556 145 556 137C572 137 592 139 607 149C633 166 639 200 641 266C649 268 653 271 658 276L620 317L611 308L622 400C633 401 643 406 647 411L600 447C611 449 625 453 626 455V515C635 517 644 522 647 526L603 561L581 541H540L496 563V441H502C519 441 535 450 535 453ZM753 547 743 543C757 560 769 577 779 592C799 587 812 595 817 603L755 643L732 597L685 593C701 611 717 633 729 652C749 647 762 656 767 663L699 706C691 677 668 613 647 594C643 592 633 589 633 589L655 540C660 542 665 545 669 552L716 568C697 536 676 506 656 489C652 487 641 484 641 484L661 438C663 439 666 440 669 444C700 454 738 467 765 477C767 467 768 457 768 448C802 414 847 483 753 547ZM434 551 431 550 461 588C481 584 493 591 498 599L436 639L412 595L368 590C385 610 403 632 415 652C436 647 448 656 453 664L385 704C376 676 352 612 330 594C326 592 316 589 316 589L338 539C341 540 344 543 348 547L393 563C374 533 352 504 332 488C328 486 317 483 317 483L345 437C348 439 351 441 354 446L443 479C444 469 445 460 445 451C477 416 524 484 434 551ZM883 631 818 639V391L760 430C747 399 731 370 714 348V409C729 412 734 419 736 428L673 436V311H651L659 281H673V194C673 183 670 177 651 164L687 122C691 125 697 131 699 140C720 156 748 178 759 187C768 167 779 149 792 137C797 160 808 164 831 167L833 179C788 202 766 238 754 281H799C809 281 816 284 818 292V214H827C843 214 861 226 861 233V612C875 615 882 621 883 631ZM783 337 763 311H714V315C739 332 766 357 784 381C798 377 811 380 818 387V301C804 318 783 337 783 337ZM440 336 420 311H381V316C406 332 431 355 450 378C466 372 480 377 487 386L428 428C415 398 398 370 381 349V408C395 411 400 418 402 427L339 435V311H310L317 281H339V195C339 183 336 177 318 164L353 122C357 125 362 131 365 139C385 154 413 175 425 186C434 165 446 147 461 135C465 157 477 161 499 164L501 176C455 199 431 237 419 281H456C469 281 477 286 479 297C464 315 440 336 440 336ZM714 189V281H734C737 256 743 229 752 204ZM381 189V281H399C403 255 409 228 418 203ZM621 703 600 682H580C591 693 586 717 538 731L526 725C534 714 541 697 544 682H475L482 656H637C648 656 656 661 658 671C642 687 621 703 621 703ZM586 489H535V515H586ZM89 54C66 27 37 -16 19 -39L70 -88C76 -80 75 -76 72 -69C82 -37 97 10 111 39C116 48 125 53 137 40C209 -66 305 -76 566 -76C706 -76 811 -76 932 -76C936 -54 949 -40 975 -36V-23C835 -28 718 -28 582 -28C333 -28 221 -27 150 65C146 70 142 73 138 74V447C156 450 171 457 177 464L112 516L80 484H25L34 454H89ZM479 852 475 838C501 828 530 811 552 795H232C231 804 228 814 225 825H207C211 796 195 760 173 748C157 737 147 721 155 704C161 693 175 690 189 693L188 680V460C188 339 194 205 158 98L173 86C215 161 226 257 229 347H265V189C265 179 263 175 254 175C245 175 216 178 216 178V161C232 159 240 154 247 147C254 140 256 126 256 115C302 121 307 143 307 184V642C318 644 328 649 332 654L281 694C313 695 349 699 385 704C422 710 458 718 487 728C503 723 511 726 518 732L470 766H877C869 748 860 728 853 715L868 707C891 719 923 741 939 759C958 760 969 760 977 767L912 831L877 795H612C612 805 606 815 595 823C567 841 524 849 479 852ZM278 694 258 670H242L195 694C199 695 203 697 207 700C222 712 234 735 234 766H448C387 740 311 721 249 713L251 694ZM265 377H230V460V497H265ZM265 526H230V641H265ZM698 491C713 506 727 523 740 539C747 528 754 514 759 499ZM379 492C394 507 409 524 423 540C428 529 434 515 438 500Z" fill="#111" stroke="none"/>
  </g>
</svg>
